<svg width="230" height="166" viewBox="0 0 230 166" fill="none" xmlns="http://www.w3.org/2000/svg">
<path d="M51.868 29.264C54.8973 29.264 57.1378 29.548 58.5893 30.116C60.0409 30.684 61.0507 31.1258 61.6187 31.4413C62.2498 31.7569 62.7231 31.9778 63.0387 32.104L59.9147 38.636L58.684 37.9733C56.0964 36.7111 53.8244 36.08 51.868 36.08C50.2271 36.08 48.7756 36.648 47.5133 37.784C46.3773 38.8569 45.8093 39.8667 45.8093 40.8133C45.62 42.1387 45.8409 43.2747 46.472 44.2213C47.1662 45.168 48.0498 46.0516 49.1227 46.872C50.1956 47.6924 51.3631 48.5129 52.6253 49.3333C53.9507 50.1538 55.1182 51.1004 56.128 52.1733C58.6524 54.6347 59.6307 57.7271 59.0627 61.4507C58.5578 65.1742 56.9484 68.172 54.2347 70.444C51.5209 72.716 47.7973 73.852 43.064 73.852C39.2142 73.852 35.8693 73.0631 33.0293 71.4853C32.4613 71.1067 31.988 70.8227 31.6093 70.6333L34.6387 64.1013C34.9542 64.2276 35.3644 64.4484 35.8693 64.764C36.4373 65.0796 37.0684 65.3636 37.7627 65.616C39.5298 66.3733 41.1707 66.752 42.6853 66.752C45.4622 66.752 47.5449 65.8053 48.9333 63.912C49.3751 63.344 49.6591 62.5551 49.7853 61.5453C49.9747 60.4724 49.7222 59.5258 49.028 58.7053C48.3338 57.8218 47.4502 57.0013 46.3773 56.244C45.3044 55.4236 44.1369 54.6031 42.8747 53.7827C41.6124 52.8991 40.4449 51.9209 39.372 50.848C36.9107 48.3867 35.9324 45.2942 36.4373 41.5707C36.9422 37.784 38.5516 34.7862 41.2653 32.5773C43.9791 30.3684 47.5133 29.264 51.868 29.264ZM77.2213 23.868C78.6728 23.868 79.7773 24.3729 80.5346 25.3827C81.3551 26.3924 81.6391 27.6862 81.3866 29.264C81.1973 30.7787 80.5662 32.0409 79.4933 33.0507C78.4204 33.9973 77.1582 34.4707 75.7066 34.4707C74.3182 34.4707 73.2137 33.9973 72.3933 33.0507C71.5728 32.0409 71.2573 30.7787 71.4466 29.264C71.7622 27.6862 72.4564 26.3924 73.5293 25.3827C74.6022 24.3729 75.8328 23.868 77.2213 23.868ZM74.6653 73H65.8613L70.4053 40.056L79.4933 38.8253L74.6653 73ZM88.8993 39.488H96.662L96.2833 43.748H96.4726C96.7882 43.5587 97.23 43.18 97.798 42.612C98.4291 42.044 99.218 41.476 100.165 40.908C102.5 39.4564 104.803 38.7307 107.075 38.7307C110.231 38.7307 112.314 39.6773 113.323 41.5707C114.333 43.464 114.554 46.3987 113.986 50.3747L110.767 73H102.153L104.898 52.552C105.214 50.1538 105.182 48.5444 104.803 47.724C104.425 46.8404 103.573 46.3987 102.247 46.3987C101.111 46.3987 100.07 46.7458 99.1233 47.44C97.3562 48.8284 96.378 49.712 96.1886 50.0907L92.97 73H84.166L88.8993 39.488ZM128.253 23.868C129.704 23.868 130.809 24.3729 131.566 25.3827C132.386 26.3924 132.67 27.6862 132.418 29.264C132.229 30.7787 131.597 32.0409 130.525 33.0507C129.452 33.9973 128.189 34.4707 126.738 34.4707C125.349 34.4707 124.245 33.9973 123.425 33.0507C122.604 32.0409 122.289 30.7787 122.478 29.264C122.793 27.6862 123.488 26.3924 124.561 25.3827C125.633 24.3729 126.864 23.868 128.253 23.868ZM125.697 73H116.893L121.437 40.056L130.525 38.8253L125.697 73ZM148.64 67.4147C150.533 67.4147 152.016 66.5311 153.089 64.764C154.225 62.9969 155.046 60.1569 155.551 56.244C156.119 52.268 156.087 49.428 155.456 47.724C154.825 46.02 153.594 45.168 151.764 45.168C149.934 45.168 148.482 46.02 147.409 47.724C146.336 49.428 145.516 52.268 144.948 56.244C144.443 60.22 144.475 63.0916 145.043 64.8587C145.611 66.5627 146.81 67.4147 148.64 67.4147ZM164.828 48.1973C165.207 50.4062 165.143 53.0884 164.639 56.244C164.197 59.3996 163.471 62.0818 162.461 64.2907C161.515 66.4996 160.315 68.3298 158.864 69.7813C156.15 72.4951 152.458 73.852 147.788 73.852C140.846 73.852 136.838 70.6649 135.765 64.2907C135.387 62.0818 135.45 59.368 135.955 56.1493C136.649 50.2169 138.574 45.7676 141.729 42.8013C144.569 40.0876 148.198 38.7307 152.616 38.7307C159.684 38.7307 163.755 41.8862 164.828 48.1973Z" fill="#2D3F42"/>
<rect x="3" y="85" width="227" height="43" rx="20" fill="#2D3F42"/>
<rect x="213" y="166" width="73" height="17" rx="8.5" transform="rotate(-90 213 166)" fill="#2D3F42"/>
<rect y="166" width="149" height="17" rx="8.5" transform="rotate(-90 0 166)" fill="#2D3F42"/>
<rect x="183.999" y="60.8121" width="18.3762" height="6.08635" rx="3.04317" transform="rotate(-21.7587 183.999 60.8121)" fill="#2D3F42"/>
<rect x="186.59" y="67.9012" width="18.6167" height="6.08635" rx="3.04317" transform="rotate(-21.7587 186.59 67.9012)" fill="#2D3F42"/>
<rect x="200.017" y="74.7822" width="65.1544" height="10.0401" rx="5.02004" transform="rotate(-108.51 200.017 74.7822)" fill="#2D3F42"/>
<ellipse cx="187.878" cy="23.81" rx="18.8914" ry="18.7842" transform="rotate(-18.5102 187.878 23.81)" fill="#2D3F42"/>
<circle cx="188" cy="24" r="8" fill="#D9D9D9"/>
</svg>
